<svg width="715" height="368" viewBox="0 0 715 368" fill="none" xmlns="http://www.w3.org/2000/svg">
<path d="M376.875 7.16339C472.489 7.16339 550 84.6748 550 180.29C550 275.905 472.489 353.417 376.875 353.417C281.261 353.417 203.75 275.905 203.75 180.29C203.75 84.6748 281.261 7.16339 376.875 7.16339Z" fill="#F1F1F1"/>
<g opacity="0.7">
<path d="M325.625 54.8722C319.375 64.4556 315.833 75.7057 315.833 87.7892C315.833 121.123 343.125 148.415 376.458 148.415C409.792 148.415 437.083 121.123 437.083 87.7892C437.083 75.7057 433.542 64.2473 427.292 54.8722H430.625C436.458 64.4556 440 75.7057 440 87.7892C440 122.789 411.667 151.123 376.667 151.123C341.667 151.123 313.333 122.789 313.333 87.7892C313.333 75.7057 316.667 64.4556 322.708 54.8722H325.625Z" fill="#E2E2E2"/>
<path d="M341.458 54.872C333.333 63.4137 328.333 75.0805 328.333 87.7889C328.333 114.456 350 135.914 376.458 135.914C402.917 135.914 424.583 114.247 424.583 87.7889C424.583 75.0805 419.583 63.4137 411.458 54.872H415.208C422.708 63.8304 427.292 75.2888 427.292 87.7889C427.292 115.914 404.375 138.831 376.25 138.831C348.125 138.831 325.208 115.914 325.208 87.7889C325.208 75.2888 329.792 63.622 337.292 54.872H341.458Z" fill="#E2E2E2"/>
<path d="M356.667 54.8721H362.708C349.792 60.2888 340.833 72.9972 340.833 87.789C340.833 107.581 356.875 123.623 376.667 123.623C396.458 123.623 412.5 107.581 412.5 87.789C412.5 72.9972 403.542 60.2888 390.625 54.8721H396.667C407.917 61.5388 415.208 73.8306 415.208 87.789C415.208 109.039 397.917 126.331 376.667 126.331C355.417 126.331 338.125 109.039 338.125 87.789C337.917 73.8306 345.417 61.5388 356.667 54.8721Z" fill="#E2E2E2"/>
<path d="M376.458 61.7473C362.083 61.7473 350.208 73.4141 350.208 87.9976C350.208 102.373 361.875 114.248 376.458 114.248C390.833 114.248 402.708 102.581 402.708 87.9976C402.708 73.4141 391.042 61.7473 376.458 61.7473ZM376.458 111.331C363.542 111.331 353.125 100.914 353.125 87.9976C353.125 75.0808 363.542 64.664 376.458 64.664C389.375 64.664 399.792 75.0808 399.792 87.9976C399.792 100.914 389.375 111.331 376.458 111.331Z" fill="#E2E2E2"/>
<path d="M376.458 74.0391C368.958 74.0391 362.708 80.2891 362.708 87.7892C362.708 95.2893 368.958 101.539 376.458 101.539C383.958 101.539 390.208 95.2893 390.208 87.7892C390.208 80.2891 384.167 74.0391 376.458 74.0391ZM376.458 98.831C370.417 98.831 365.417 93.8309 365.417 87.7892C365.417 81.7475 370.417 76.7474 376.458 76.7474C382.5 76.7474 387.5 81.7475 387.5 87.7892C387.5 93.8309 382.5 98.831 376.458 98.831Z" fill="#E2E2E2"/>
</g>
<g opacity="0.7">
<path d="M263.125 25.7052C256.875 35.2886 253.333 46.5387 253.333 58.6222C253.333 91.9558 280.625 119.248 313.958 119.248C347.292 119.248 374.583 91.9558 374.583 58.6222C374.583 46.5387 371.042 35.0803 364.792 25.7052H368.125C373.958 35.2886 377.5 46.5387 377.5 58.6222C377.5 93.6225 349.167 121.956 314.167 121.956C279.167 121.956 250.833 93.6225 250.833 58.6222C250.833 46.5387 254.167 35.2886 260.208 25.7052H263.125Z" fill="#E2E2E2"/>
<path d="M278.958 25.7052C270.833 34.247 265.833 45.9137 265.833 58.6222C265.833 85.2891 287.5 106.748 313.958 106.748C340.417 106.748 362.083 85.0808 362.083 58.6222C362.083 45.9137 357.083 34.247 348.958 25.7052H352.708C360.208 34.6636 364.792 46.1221 364.792 58.6222C364.792 86.7474 341.875 109.664 313.75 109.664C285.625 109.664 262.708 86.7474 262.708 58.6222C262.708 46.1221 267.292 34.4553 274.792 25.7052H278.958Z" fill="#E2E2E2"/>
<path d="M293.958 25.7051H300C287.083 31.1218 278.125 43.8302 278.125 58.622C278.125 78.4139 294.167 94.4557 313.958 94.4557C333.75 94.4557 349.792 78.4139 349.792 58.622C349.792 43.8302 340.833 31.1218 327.917 25.7051H333.958C345.208 32.3718 352.5 44.6636 352.5 58.622C352.5 79.8722 335.208 97.1641 313.958 97.1641C292.708 97.1641 275.417 79.8722 275.417 58.622C275.417 44.8719 282.916 32.5801 293.958 25.7051Z" fill="#E2E2E2"/>
<path d="M313.958 32.5803C299.583 32.5803 287.708 44.2471 287.708 58.8306C287.708 73.2057 299.375 85.0808 313.958 85.0808C328.333 85.0808 340.208 73.414 340.208 58.8306C340.208 44.2471 328.333 32.5803 313.958 32.5803ZM313.958 82.1641C301.042 82.1641 290.625 71.7473 290.625 58.8306C290.625 45.9138 301.042 35.497 313.958 35.497C326.875 35.497 337.292 45.9138 337.292 58.8306C337.292 71.7473 326.875 82.1641 313.958 82.1641Z" fill="#E2E2E2"/>
<path d="M313.958 44.8721C306.458 44.8721 300.208 51.1221 300.208 58.6222C300.208 66.1223 306.458 72.3723 313.958 72.3723C321.458 72.3723 327.708 66.1223 327.708 58.6222C327.708 51.1221 321.667 44.8721 313.958 44.8721ZM313.958 69.8723C307.917 69.8723 302.917 64.8722 302.917 58.8305C302.917 52.7888 307.917 47.7888 313.958 47.7888C320 47.7888 325 52.7888 325 58.8305C325 64.8722 320 69.8723 313.958 69.8723Z" fill="#E2E2E2"/>
</g>
<g opacity="0.7">
<path d="M388.958 25.7052C382.708 35.2886 379.167 46.5387 379.167 58.6222C379.167 91.9558 406.458 119.248 439.792 119.248C473.125 119.248 500.416 91.9558 500.416 58.6222C500.416 46.5387 496.875 35.0803 490.625 25.7052H493.958C499.792 35.2886 503.333 46.5387 503.333 58.6222C503.333 93.6225 475 121.956 440 121.956C405 121.956 376.667 93.6225 376.667 58.6222C376.667 46.5387 380 35.2886 386.042 25.7052H388.958Z" fill="#E2E2E2"/>
<path d="M404.583 25.7052C396.458 34.247 391.458 45.9137 391.458 58.6222C391.458 85.2891 413.125 106.748 439.583 106.748C466.25 106.748 487.708 85.0808 487.708 58.6222C487.708 45.9137 482.708 34.247 474.583 25.7052H478.333C485.833 34.6636 490.417 46.1221 490.417 58.6222C490.417 86.7474 467.5 109.664 439.375 109.664C411.25 109.664 388.333 86.7474 388.333 58.6222C388.333 46.1221 392.917 34.4553 400.417 25.7052H404.583Z" fill="#E2E2E2"/>
<path d="M419.791 25.7051H425.833C412.916 31.1218 403.958 43.8302 403.958 58.622C403.958 78.4139 420 94.4557 439.791 94.4557C459.583 94.4557 475.625 78.4139 475.625 58.622C475.625 43.8302 466.666 31.1218 453.75 25.7051H459.791C471.041 32.3718 478.333 44.6636 478.333 58.622C478.333 79.8722 461.041 97.1641 439.791 97.1641C418.541 97.1641 401.25 79.8722 401.25 58.622C401.25 44.8719 408.75 32.5801 419.791 25.7051Z" fill="#E2E2E2"/>
<path d="M439.791 32.5803C425.416 32.5803 413.542 44.2471 413.542 58.8306C413.542 73.2057 425.208 85.0808 439.791 85.0808C454.166 85.0808 466.041 73.414 466.041 58.8306C465.833 44.2471 454.166 32.5803 439.791 32.5803ZM439.791 82.1641C426.875 82.1641 416.458 71.7473 416.458 58.8306C416.458 45.9138 426.875 35.497 439.791 35.497C452.708 35.497 463.125 45.9138 463.125 58.8306C463.125 71.7473 452.708 82.1641 439.791 82.1641Z" fill="#E2E2E2"/>
<path d="M439.791 44.8721C432.291 44.8721 426.042 51.1221 426.042 58.6222C426.042 66.1223 432.291 72.3723 439.791 72.3723C447.291 72.3723 453.541 66.1223 453.541 58.6222C453.541 51.1221 447.291 44.8721 439.791 44.8721ZM439.791 69.8723C433.75 69.8723 428.75 64.8722 428.75 58.8305C428.75 52.7888 433.75 47.7888 439.791 47.7888C445.833 47.7888 450.833 52.7888 450.833 58.8305C450.833 64.8722 445.833 69.8723 439.791 69.8723Z" fill="#E2E2E2"/>
</g>
<g opacity="0.7">
<path d="M195 0.0798006C191.875 7.37153 190.208 15.2883 190.208 23.6217C190.208 56.9553 217.5 84.2472 250.833 84.2472C284.167 84.2472 311.458 56.9553 311.458 23.6217C311.458 15.2883 309.792 7.37153 306.667 0.0798006H309.583C312.5 7.37153 314.166 15.2883 314.166 23.6217C314.166 58.622 285.833 86.9556 250.833 86.9556C215.833 86.9556 187.292 58.622 187.292 23.83C187.292 15.4966 188.958 7.57988 191.875 0.288148H195V0.0798006Z" fill="#E2E2E2"/>
<path d="M208.75 0.0798072C204.791 7.1632 202.5 15.0799 202.5 23.6217C202.5 50.2886 224.166 71.7471 250.625 71.7471C277.083 71.7471 298.75 50.0803 298.75 23.6217C298.75 15.0799 296.458 6.95487 292.5 0.0798072H295.625C299.375 7.1632 301.458 15.0799 301.458 23.6217C301.458 51.7469 278.541 74.6638 250.416 74.6638C222.291 74.6638 199.375 51.7469 199.375 23.6217C199.375 15.0799 201.458 7.1632 205.208 0.0798072H208.75Z" fill="#E2E2E2"/>
<path d="M223.75 0.0799198C218.125 6.32998 214.792 14.6634 214.792 23.6218C214.792 43.4136 230.833 59.4555 250.625 59.4555C270.417 59.4555 286.458 43.4136 286.458 23.6218C286.458 14.6634 283.125 6.32998 277.5 0.0799198H281.042C286.042 6.53831 289.167 14.8717 289.167 23.6218C289.167 44.872 271.875 62.1638 250.625 62.1638C229.375 62.1638 212.083 44.872 212.083 23.6218C212.083 14.6634 215.208 6.53831 220.208 0.0799198H223.75Z" fill="#E2E2E2"/>
<path d="M239.583 0.0799306H262.083C270.833 4.24664 277.083 13.2051 277.083 23.6218C277.083 37.9969 265.417 49.8721 250.833 49.8721C236.458 49.8721 224.583 38.2053 224.583 23.6218C224.583 13.4134 230.625 4.45497 239.583 0.0799306ZM250.833 47.1637C263.75 47.1637 274.167 36.747 274.167 23.8302C274.167 10.9134 263.75 0.496595 250.833 0.496595C237.917 0.496595 227.5 10.9134 227.5 23.8302C227.5 36.747 237.917 47.1637 250.833 47.1637Z" fill="#E2E2E2"/>
<path d="M250.833 9.8718C243.333 9.8718 237.083 16.1219 237.083 23.6219C237.083 31.122 243.333 37.3721 250.833 37.3721C258.333 37.3721 264.583 31.122 264.583 23.6219C264.583 16.1219 258.333 9.8718 250.833 9.8718ZM250.833 34.6637C244.792 34.6637 239.792 29.6637 239.792 23.6219C239.792 17.5802 244.792 12.5802 250.833 12.5802C256.875 12.5802 261.875 17.5802 261.875 23.6219C261.875 29.872 256.875 34.6637 250.833 34.6637Z" fill="#E2E2E2"/>
</g>
<g opacity="0.7">
<path d="M320.625 0.0798006C317.5 7.37153 315.833 15.2883 315.833 23.6217C315.833 56.9553 343.125 84.2472 376.458 84.2472C409.792 84.2472 437.083 56.9553 437.083 23.6217C437.083 15.2883 435.417 7.37153 432.292 0.0798006H435.208C438.125 7.37153 439.792 15.2883 439.792 23.6217C439.792 58.622 411.458 86.9556 376.458 86.9556C341.458 86.9556 313.125 58.622 313.125 23.6217C313.125 15.2883 314.792 7.37153 317.708 0.0798006H320.625Z" fill="#E2E2E2"/>
<path d="M334.583 0.0798072C330.625 7.1632 328.333 15.0799 328.333 23.6217C328.333 50.2886 350 71.7471 376.458 71.7471C403.125 71.7471 424.583 50.0803 424.583 23.6217C424.583 15.0799 422.292 6.95487 418.333 0.0798072H421.458C425.208 7.1632 427.292 15.0799 427.292 23.6217C427.292 51.7469 404.375 74.6638 376.25 74.6638C348.125 74.6638 325.208 51.7469 325.208 23.6217C325.208 15.0799 327.292 7.1632 331.042 0.0798072H334.583Z" fill="#E2E2E2"/>
<path d="M349.583 0.0799198C343.958 6.32998 340.625 14.6634 340.625 23.6218C340.625 43.4136 356.667 59.4555 376.458 59.4555C396.25 59.4555 412.292 43.4136 412.292 23.6218C412.292 14.6634 408.958 6.32998 403.333 0.0799198H406.875C411.875 6.53831 415 14.8717 415 23.6218C415 44.872 397.708 62.1638 376.458 62.1638C355.208 62.1638 337.917 44.872 337.917 23.6218C337.917 14.6634 341.042 6.53831 346.042 0.0799198H349.583Z" fill="#E2E2E2"/>
<path d="M365.208 0.0799306H387.708C396.458 4.24664 402.708 13.2051 402.708 23.6218C402.708 37.9969 391.042 49.8721 376.458 49.8721C362.083 49.8721 350.208 38.2053 350.208 23.6218C350.417 13.4134 356.458 4.45497 365.208 0.0799306ZM376.458 47.1637C389.375 47.1637 399.792 36.747 399.792 23.8302C399.792 10.9134 389.375 0.496595 376.458 0.496595C363.542 0.496595 353.125 10.9134 353.125 23.8302C353.125 36.747 363.542 47.1637 376.458 47.1637Z" fill="#E2E2E2"/>
<path d="M376.458 9.8718C368.958 9.8718 362.708 16.1219 362.708 23.6219C362.708 31.122 368.958 37.3721 376.458 37.3721C383.958 37.3721 390.208 31.122 390.208 23.6219C390.208 16.1219 384.167 9.8718 376.458 9.8718ZM376.458 34.6637C370.417 34.6637 365.417 29.6637 365.417 23.6219C365.417 17.5802 370.417 12.5802 376.458 12.5802C382.5 12.5802 387.5 17.5802 387.5 23.6219C387.5 29.872 382.5 34.6637 376.458 34.6637Z" fill="#E2E2E2"/>
</g>
<g opacity="0.7">
<path d="M446.458 0.0798006C443.333 7.37153 441.667 15.2883 441.667 23.6217C441.667 56.9553 468.958 84.2472 502.292 84.2472C535.625 84.2472 562.917 56.9553 562.917 23.6217C562.917 15.2883 561.25 7.37153 558.125 0.0798006H561.042C563.958 7.37153 565.625 15.2883 565.625 23.6217C565.625 58.622 537.292 86.9556 502.292 86.9556C467.292 86.9556 438.958 58.622 438.958 23.6217C438.958 15.2883 440.625 7.37153 443.542 0.0798006H446.458Z" fill="#E2E2E2"/>
<path d="M460.208 0.0798072C456.25 7.1632 453.958 15.0799 453.958 23.6217C453.958 50.2886 475.625 71.7471 502.083 71.7471C528.542 71.7471 550.208 50.0803 550.208 23.6217C550.208 15.0799 547.917 6.95487 543.958 0.0798072H547.083C550.833 7.1632 552.917 15.0799 552.917 23.6217C552.917 51.7469 530 74.6638 501.875 74.6638C473.75 74.6638 450.833 51.7469 450.833 23.6217C450.833 15.0799 452.917 7.1632 456.667 0.0798072H460.208Z" fill="#E2E2E2"/>
<path d="M475.417 0.0799198C469.792 6.32998 466.458 14.6634 466.458 23.6218C466.458 43.4136 482.5 59.4555 502.292 59.4555C522.083 59.4555 538.125 43.4136 538.125 23.6218C538.125 14.6634 534.792 6.32998 529.167 0.0799198H532.708C537.708 6.53831 540.833 14.8717 540.833 23.6218C540.833 44.872 523.542 62.1638 502.292 62.1638C481.042 62.1638 463.75 44.872 463.75 23.6218C463.75 14.6634 466.875 6.53831 471.875 0.0799198H475.417Z" fill="#E2E2E2"/>
<path d="M491.041 0.0799306H513.542C522.292 4.24664 528.541 13.2051 528.541 23.6218C528.541 37.9969 516.875 49.8721 502.292 49.8721C487.917 49.8721 476.042 38.2053 476.042 23.6218C476.042 13.4134 482.291 4.45497 491.041 0.0799306ZM502.292 47.1637C515.208 47.1637 525.625 36.747 525.625 23.8302C525.625 10.9134 515.208 0.496595 502.292 0.496595C489.375 0.496595 478.958 10.9134 478.958 23.8302C478.958 36.747 489.375 47.1637 502.292 47.1637Z" fill="#E2E2E2"/>
<path d="M502.292 9.8718C494.792 9.8718 488.542 16.1219 488.542 23.6219C488.542 31.122 494.792 37.3721 502.292 37.3721C509.792 37.3721 516.041 31.122 516.041 23.6219C516.041 16.1219 509.792 9.8718 502.292 9.8718ZM502.292 34.6637C496.25 34.6637 491.25 29.6637 491.25 23.6219C491.25 17.5802 496.25 12.5802 502.292 12.5802C508.333 12.5802 513.333 17.5802 513.333 23.6219C513.333 29.872 508.333 34.6637 502.292 34.6637Z" fill="#E2E2E2"/>
</g>
<g opacity="0.7">
<path d="M127.917 0.0798825C130.625 30.9135 156.667 55.2887 188.333 55.2887C220 55.2887 245.833 31.1218 248.75 0.0798825H251.458C248.75 32.3718 221.458 57.9971 188.333 57.9971C155.208 57.9971 127.917 32.5802 125.208 0.0798825H127.917Z" fill="#E2E2E2"/>
<path d="M140.417 0.0799884C143.125 24.0385 163.542 42.7887 188.333 42.7887C213.125 42.7887 233.542 24.0385 236.25 0.0799884H238.958C236.25 25.7052 214.583 45.4971 188.333 45.4971C162.083 45.4971 140.417 25.4969 137.708 0.0799884H140.417Z" fill="#E2E2E2"/>
<path d="M152.917 0.080005C155.625 17.1635 170.417 30.497 188.333 30.497C206.25 30.497 221.042 17.3718 223.75 0.080005H226.458C223.75 18.8302 207.708 33.2053 188.333 33.2053C168.958 33.2053 152.917 18.8302 150.208 0.080005H152.917Z" fill="#E2E2E2"/>
<path d="M165.417 0.079871C167.917 10.2883 177.083 17.9967 188.125 17.9967C199.167 17.9967 208.333 10.2883 210.833 0.079871H213.75C211.25 11.955 200.625 20.7051 188.125 20.7051C175.625 20.7051 165 11.7466 162.5 0.079871H165.417Z" fill="#E2E2E2"/>
<path d="M178.75 0.0801659C180.625 3.41353 184.167 5.70521 188.333 5.70521C192.5 5.70521 195.833 3.41353 197.917 0.0801659H201.042C198.958 4.87188 194.167 8.41357 188.333 8.41357C182.708 8.41357 177.917 5.08021 175.625 0.0801659H178.75Z" fill="#E2E2E2"/>
</g>
<g opacity="0.7">
<path d="M253.542 0.0798825C256.25 30.9135 282.292 55.2887 313.958 55.2887C345.625 55.2887 371.458 31.1218 374.375 0.0798825H377.083C374.375 32.3718 347.083 57.9971 313.958 57.9971C280.833 57.9971 253.542 32.5802 250.833 0.0798825H253.542Z" fill="#E2E2E2"/>
<path d="M266.042 0.0799884C268.75 24.0385 289.167 42.7887 313.958 42.7887C338.75 42.7887 359.167 24.0385 361.875 0.0799884H364.583C361.875 25.7052 340.208 45.4971 313.958 45.4971C287.708 45.4971 266.042 25.4969 263.333 0.0799884H266.042Z" fill="#E2E2E2"/>
<path d="M278.542 0.080005C281.25 17.1635 296.042 30.497 313.958 30.497C331.875 30.497 346.667 17.3718 349.375 0.080005H352.083C349.375 18.8302 333.333 33.2053 313.958 33.2053C294.583 33.2053 278.542 18.8302 275.833 0.080005H278.542Z" fill="#E2E2E2"/>
<path d="M291.25 0.079871C293.75 10.2883 302.917 17.9967 313.958 17.9967C325 17.9967 334.167 10.2883 336.667 0.079871H339.583C337.083 11.955 326.458 20.7051 313.958 20.7051C301.458 20.7051 290.833 11.7466 288.333 0.079871H291.25Z" fill="#E2E2E2"/>
<path d="M304.583 0.0801659C306.458 3.41353 310 5.70521 314.167 5.70521C318.333 5.70521 321.667 3.41353 323.75 0.0801659H326.875C324.792 4.87188 320 8.41357 314.167 8.41357C308.542 8.41357 303.75 5.08021 301.458 0.0801659H304.583Z" fill="#E2E2E2"/>
</g>
<g opacity="0.7">
<path d="M379.375 0.0798825C382.083 30.9135 408.125 55.2887 439.792 55.2887C471.458 55.2887 497.292 31.1218 500.208 0.0798825H502.917C500.208 32.3718 472.917 57.9971 439.792 57.9971C406.667 57.9971 379.375 32.5802 376.667 0.0798825H379.375Z" fill="#E2E2E2"/>
<path d="M391.875 0.0799884C394.583 24.0385 415 42.7887 439.792 42.7887C464.583 42.7887 485 24.0385 487.708 0.0799884H490.417C487.708 25.7052 466.042 45.4971 439.792 45.4971C413.542 45.4971 391.875 25.4969 389.167 0.0799884H391.875Z" fill="#E2E2E2"/>
<path d="M404.375 0.080005C407.083 17.1635 421.875 30.497 439.792 30.497C457.708 30.497 472.5 17.3718 475.208 0.080005H477.917C475.208 18.8302 459.167 33.2053 439.792 33.2053C420.417 33.2053 404.375 18.8302 401.667 0.080005H404.375Z" fill="#E2E2E2"/>
<path d="M417.083 0.079871C419.583 10.2883 428.75 17.9967 439.792 17.9967C450.833 17.9967 460 10.2883 462.5 0.079871H465.417C462.917 11.955 452.292 20.7051 439.792 20.7051C427.292 20.7051 416.667 11.7466 414.167 0.079871H417.083Z" fill="#E2E2E2"/>
<path d="M430.208 0.0801659C432.083 3.41353 435.625 5.70521 439.792 5.70521C443.958 5.70521 447.292 3.41353 449.375 0.0801659H452.5C450.417 4.87188 445.625 8.41357 439.792 8.41357C434.167 8.41357 429.375 5.08021 427.083 0.0801659H430.208Z" fill="#E2E2E2"/>
</g>
<g opacity="0.7">
<path d="M505.208 0.0798825C507.917 30.9135 533.958 55.2887 565.625 55.2887C597.292 55.2887 623.125 31.1218 626.042 0.0798825H628.75C626.042 32.3718 598.75 57.9971 565.625 57.9971C532.5 57.9971 505.208 32.5802 502.5 0.0798825H505.208Z" fill="#E2E2E2"/>
<path d="M517.708 0.0799884C520.417 24.0385 540.833 42.7887 565.625 42.7887C590.417 42.7887 610.833 24.0385 613.542 0.0799884H616.25C613.542 25.7052 591.875 45.4971 565.625 45.4971C539.375 45.4971 517.708 25.4969 515 0.0799884H517.708Z" fill="#E2E2E2"/>
<path d="M530.208 0.080005C532.917 17.1635 547.708 30.497 565.625 30.497C583.542 30.497 598.333 17.3718 601.042 0.080005H603.75C601.042 18.8302 585 33.2053 565.625 33.2053C546.25 33.2053 530.208 18.8302 527.5 0.080005H530.208Z" fill="#E2E2E2"/>
<path d="M542.708 0.079871C545.208 10.2883 554.375 17.9967 565.417 17.9967C576.458 17.9967 585.625 10.2883 588.125 0.079871H591.042C588.542 11.955 577.917 20.7051 565.417 20.7051C552.917 20.7051 542.292 11.7466 539.792 0.079871H542.708Z" fill="#E2E2E2"/>
<path d="M556.042 0.0801659C557.917 3.41353 561.458 5.70521 565.625 5.70521C569.792 5.70521 573.125 3.41353 575.208 0.0801659H578.333C576.25 4.87188 571.458 8.41357 565.625 8.41357C559.792 8.41357 555.208 5.08021 552.917 0.0801659H556.042Z" fill="#E2E2E2"/>
</g>
<g opacity="0.7">
<path d="M205.625 0.0799532C216.667 12.3717 232.917 20.2885 250.625 20.2885C268.542 20.2885 284.583 12.5801 295.625 0.0799532H299.167C287.5 14.0384 270 22.9968 250.417 22.9968C230.833 22.9968 213.333 14.0384 201.667 0.0799532H205.625Z" fill="#E2E2E2"/>
<path d="M224.583 0.0800657C232.083 4.87178 241.041 7.78846 250.625 7.78846C260.208 7.78846 269.166 4.87178 276.666 0.0800657H281.458C272.916 6.53846 262.291 10.4968 250.625 10.4968C238.958 10.4968 228.333 6.53846 219.792 0.0800657H224.583Z" fill="#E2E2E2"/>
</g>
<g opacity="0.7">
<path d="M331.458 0.0799532C342.5 12.3717 358.75 20.2885 376.458 20.2885C394.167 20.2885 410.417 12.5801 421.458 0.0799532H425C413.333 14.0384 395.833 22.9968 376.25 22.9968C356.667 22.9968 339.167 14.0384 327.5 0.0799532H331.458Z" fill="#E2E2E2"/>
<path d="M350.417 0.0800657C357.917 4.87178 366.875 7.78846 376.458 7.78846C386.042 7.78846 395 4.87178 402.5 0.0800657H407.292C398.75 6.53846 388.125 10.4968 376.458 10.4968C364.792 10.4968 354.167 6.53846 345.625 0.0800657H350.417Z" fill="#E2E2E2"/>
</g>
<g opacity="0.7">
<path d="M457.292 0.0799532C468.333 12.3717 484.583 20.2885 502.292 20.2885C520.208 20.2885 536.25 12.5801 547.292 0.0799532H550.833C539.167 14.0384 521.667 22.9968 502.083 22.9968C482.5 22.9968 465 14.0384 453.333 0.0799532H457.292Z" fill="#E2E2E2"/>
<path d="M476.25 0.0800657C483.75 4.87178 492.708 7.78846 502.292 7.78846C511.875 7.78846 520.833 4.87178 528.333 0.0800657H533.125C524.583 6.53846 513.958 10.4968 502.292 10.4968C490.625 10.4968 480 6.53846 471.458 0.0800657H476.25Z" fill="#E2E2E2"/>
</g>
<path d="M653.75 79.0392C653.75 76.1225 651.458 73.8308 648.542 73.8308C645.625 73.8308 643.333 76.1225 643.333 79.0392C643.333 81.9559 645.625 84.2476 648.542 84.2476C651.458 84.2476 653.75 81.9559 653.75 79.0392Z" fill="#F1F1F1"/>
<path d="M678.958 73.8308C681.835 73.8308 684.167 76.1627 684.167 79.0392C684.167 81.9157 681.835 84.2476 678.958 84.2476C676.082 84.2476 673.75 81.9157 673.75 79.0392C673.75 76.1627 676.082 73.8308 678.958 73.8308Z" fill="#F1F1F1"/>
<path d="M709.583 73.8308C712.46 73.8308 714.792 76.1627 714.792 79.0392C714.792 81.9157 712.46 84.2476 709.583 84.2476C706.707 84.2476 704.375 81.9157 704.375 79.0392C704.375 76.1627 706.707 73.8308 709.583 73.8308Z" fill="#F1F1F1"/>
<path d="M5.20833 63.8306C8.08482 63.8306 10.4167 66.1624 10.4167 69.0389C10.4167 71.9154 8.08482 74.2473 5.20833 74.2473C2.33185 74.2473 0 71.9154 0 69.0389C0 66.1624 2.33185 63.8306 5.20833 63.8306Z" fill="white"/>
<path d="M35.8333 63.8306C38.7098 63.8306 41.0417 66.1624 41.0417 69.0389C41.0417 71.9154 38.7098 74.2473 35.8333 74.2473C32.9569 74.2473 30.625 71.9154 30.625 69.0389C30.625 66.1624 32.9569 63.8306 35.8333 63.8306Z" fill="white"/>
<path d="M71.6667 69.039C71.6667 66.1223 69.375 63.8306 66.4583 63.8306C63.5417 63.8306 61.25 66.1223 61.25 69.039C61.25 71.9557 63.5417 74.2474 66.4583 74.2474C69.375 74.4557 71.6667 71.9557 71.6667 69.039Z" fill="white"/>
<path d="M613.958 341.75C614.583 341.75 615 342.166 615 342.791C615 343.416 614.583 343.833 613.958 343.833C613.333 343.833 612.917 343.416 612.917 342.791C612.917 342.375 613.333 341.75 613.958 341.75Z" fill="#F1F1F1"/>
<path d="M626.458 341.75C627.083 341.75 627.5 342.166 627.5 342.791C627.5 343.416 627.083 343.833 626.458 343.833C625.833 343.833 625.417 343.416 625.417 342.791C625.417 342.375 625.833 341.75 626.458 341.75Z" fill="#F1F1F1"/>
<path d="M638.958 341.75C639.583 341.75 640 342.166 640 342.791C640 343.416 639.583 343.833 638.958 343.833C638.333 343.833 637.917 343.416 637.917 342.791C637.917 342.375 638.333 341.75 638.958 341.75Z" fill="#F1F1F1"/>
<path d="M651.458 341.75C652.083 341.75 652.5 342.166 652.5 342.791C652.5 343.416 652.083 343.833 651.458 343.833C650.833 343.833 650.417 343.416 650.417 342.791C650.417 342.375 650.833 341.75 651.458 341.75Z" fill="#F1F1F1"/>
<path d="M663.958 341.75C664.583 341.75 665 342.166 665 342.791C665 343.416 664.583 343.833 663.958 343.833C663.333 343.833 662.917 343.416 662.917 342.791C662.917 342.375 663.333 341.75 663.958 341.75Z" fill="#F1F1F1"/>
<path d="M613.958 329.25C614.583 329.25 615 329.666 615 330.291C615 330.916 614.583 331.333 613.958 331.333C613.333 331.333 612.917 330.916 612.917 330.291C612.917 329.875 613.333 329.25 613.958 329.25Z" fill="#F1F1F1"/>
<path d="M626.458 329.25C627.083 329.25 627.5 329.666 627.5 330.291C627.5 330.916 627.083 331.333 626.458 331.333C625.833 331.333 625.417 330.916 625.417 330.291C625.417 329.875 625.833 329.25 626.458 329.25Z" fill="#F1F1F1"/>
<path d="M638.958 329.25C639.583 329.25 640 329.666 640 330.291C640 330.916 639.583 331.333 638.958 331.333C638.333 331.333 637.917 330.916 637.917 330.291C637.917 329.875 638.333 329.25 638.958 329.25Z" fill="#F1F1F1"/>
<path d="M651.458 329.25C652.083 329.25 652.5 329.666 652.5 330.291C652.5 330.916 652.083 331.333 651.458 331.333C650.833 331.333 650.417 330.916 650.417 330.291C650.417 329.875 650.833 329.25 651.458 329.25Z" fill="#F1F1F1"/>
<path d="M663.958 329.25C664.583 329.25 665 329.666 665 330.291C665 330.916 664.583 331.333 663.958 331.333C663.333 331.333 662.917 330.916 662.917 330.291C662.917 329.875 663.333 329.25 663.958 329.25Z" fill="#F1F1F1"/>
<path d="M613.958 316.749C614.583 316.749 615 317.166 615 317.791C615 318.416 614.583 318.833 613.958 318.833C613.333 318.833 612.917 318.416 612.917 317.791C612.917 317.374 613.333 316.749 613.958 316.749Z" fill="#F1F1F1"/>
<path d="M626.458 316.749C627.083 316.749 627.5 317.166 627.5 317.791C627.5 318.416 627.083 318.833 626.458 318.833C625.833 318.833 625.417 318.416 625.417 317.791C625.417 317.374 625.833 316.749 626.458 316.749Z" fill="#F1F1F1"/>
<path d="M638.958 316.749C639.583 316.749 640 317.166 640 317.791C640 318.416 639.583 318.833 638.958 318.833C638.333 318.833 637.917 318.416 637.917 317.791C637.917 317.374 638.333 316.749 638.958 316.749Z" fill="#F1F1F1"/>
<path d="M651.458 316.749C652.083 316.749 652.5 317.166 652.5 317.791C652.5 318.416 652.083 318.833 651.458 318.833C650.833 318.833 650.417 318.416 650.417 317.791C650.417 317.374 650.833 316.749 651.458 316.749Z" fill="#F1F1F1"/>
<path d="M663.958 316.749C664.583 316.749 665 317.166 665 317.791C665 318.416 664.583 318.833 663.958 318.833C663.333 318.833 662.917 318.416 662.917 317.791C662.917 317.374 663.333 316.749 663.958 316.749Z" fill="#F1F1F1"/>
<path d="M613.958 304.249C614.583 304.249 615 304.666 615 305.291C615 305.916 614.583 306.333 613.958 306.333C613.333 306.333 612.917 305.916 612.917 305.291C612.917 304.874 613.333 304.249 613.958 304.249Z" fill="#F1F1F1"/>
<path d="M626.458 304.249C627.083 304.249 627.5 304.666 627.5 305.291C627.5 305.916 627.083 306.333 626.458 306.333C625.833 306.333 625.417 305.916 625.417 305.291C625.417 304.874 625.833 304.249 626.458 304.249Z" fill="#F1F1F1"/>
<path d="M638.958 304.249C639.583 304.249 640 304.666 640 305.291C640 305.916 639.583 306.333 638.958 306.333C638.333 306.333 637.917 305.916 637.917 305.291C637.917 304.874 638.333 304.249 638.958 304.249Z" fill="#F1F1F1"/>
<path d="M651.458 304.249C652.083 304.249 652.5 304.666 652.5 305.291C652.5 305.916 652.083 306.333 651.458 306.333C650.833 306.333 650.417 305.916 650.417 305.291C650.417 304.874 650.833 304.249 651.458 304.249Z" fill="#F1F1F1"/>
<path d="M663.958 304.249C664.583 304.249 665 304.666 665 305.291C665 305.916 664.583 306.333 663.958 306.333C663.333 306.333 662.917 305.916 662.917 305.291C662.917 304.874 663.333 304.249 663.958 304.249Z" fill="#F1F1F1"/>
<path d="M613.958 291.749C614.583 291.749 615 292.166 615 292.791C615 293.416 614.583 293.833 613.958 293.833C613.333 293.833 612.917 293.416 612.917 292.791C612.917 292.374 613.333 291.749 613.958 291.749Z" fill="#F1F1F1"/>
<path d="M626.458 291.749C627.083 291.749 627.5 292.166 627.5 292.791C627.5 293.416 627.083 293.833 626.458 293.833C625.833 293.833 625.417 293.416 625.417 292.791C625.417 292.374 625.833 291.749 626.458 291.749Z" fill="#F1F1F1"/>
<path d="M638.958 291.749C639.583 291.749 640 292.166 640 292.791C640 293.416 639.583 293.833 638.958 293.833C638.333 293.833 637.917 293.416 637.917 292.791C637.917 292.374 638.333 291.749 638.958 291.749Z" fill="#F1F1F1"/>
<path d="M651.458 291.749C652.083 291.749 652.5 292.166 652.5 292.791C652.5 293.416 652.083 293.833 651.458 293.833C650.833 293.833 650.417 293.416 650.417 292.791C650.417 292.374 650.833 291.749 651.458 291.749Z" fill="#F1F1F1"/>
<path d="M663.958 291.749C664.583 291.749 665 292.166 665 292.791C665 293.416 664.583 293.833 663.958 293.833C663.333 293.833 662.917 293.416 662.917 292.791C662.917 292.374 663.333 291.749 663.958 291.749Z" fill="#F1F1F1"/>
<path d="M613.958 279.249C614.583 279.249 615 279.666 615 280.291C615 280.916 614.583 281.332 613.958 281.332C613.333 281.332 612.917 280.916 612.917 280.291C612.917 279.874 613.333 279.249 613.958 279.249Z" fill="#F1F1F1"/>
<path d="M626.458 279.249C627.083 279.249 627.5 279.666 627.5 280.291C627.5 280.916 627.083 281.332 626.458 281.332C625.833 281.332 625.417 280.916 625.417 280.291C625.417 279.874 625.833 279.249 626.458 279.249Z" fill="#F1F1F1"/>
<path d="M638.958 279.249C639.583 279.249 640 279.666 640 280.291C640 280.916 639.583 281.332 638.958 281.332C638.333 281.332 637.917 280.916 637.917 280.291C637.917 279.874 638.333 279.249 638.958 279.249Z" fill="#F1F1F1"/>
<path d="M651.458 279.249C652.083 279.249 652.5 279.666 652.5 280.291C652.5 280.916 652.083 281.332 651.458 281.332C650.833 281.332 650.417 280.916 650.417 280.291C650.417 279.874 650.833 279.249 651.458 279.249Z" fill="#F1F1F1"/>
<path d="M663.958 279.249C664.583 279.249 665 279.666 665 280.291C665 280.916 664.583 281.332 663.958 281.332C663.333 281.332 662.917 280.916 662.917 280.291C662.917 279.874 663.333 279.249 663.958 279.249Z" fill="#F1F1F1"/>
<path d="M613.958 266.749C614.583 266.749 615 267.166 615 267.791C615 268.416 614.583 268.832 613.958 268.832C613.333 268.832 612.917 268.416 612.917 267.791C612.917 267.374 613.333 266.749 613.958 266.749Z" fill="#F1F1F1"/>
<path d="M626.458 266.749C627.083 266.749 627.5 267.166 627.5 267.791C627.5 268.416 627.083 268.832 626.458 268.832C625.833 268.832 625.417 268.416 625.417 267.791C625.417 267.374 625.833 266.749 626.458 266.749Z" fill="#F1F1F1"/>
<path d="M638.958 266.749C639.583 266.749 640 267.166 640 267.791C640 268.416 639.583 268.832 638.958 268.832C638.333 268.832 637.917 268.416 637.917 267.791C637.917 267.374 638.333 266.749 638.958 266.749Z" fill="#F1F1F1"/>
<path d="M651.458 266.749C652.083 266.749 652.5 267.166 652.5 267.791C652.5 268.416 652.083 268.832 651.458 268.832C650.833 268.832 650.417 268.416 650.417 267.791C650.417 267.374 650.833 266.749 651.458 266.749Z" fill="#F1F1F1"/>
<path d="M663.958 266.749C664.583 266.749 665 267.166 665 267.791C665 268.416 664.583 268.832 663.958 268.832C663.333 268.832 662.917 268.416 662.917 267.791C662.917 267.374 663.333 266.749 663.958 266.749Z" fill="#F1F1F1"/>
<path d="M613.958 254.249C614.583 254.249 615 254.666 615 255.291C615 255.916 614.583 256.332 613.958 256.332C613.333 256.332 612.917 255.916 612.917 255.291C612.917 254.874 613.333 254.249 613.958 254.249Z" fill="#F1F1F1"/>
<path d="M626.458 254.249C627.083 254.249 627.5 254.666 627.5 255.291C627.5 255.916 627.083 256.332 626.458 256.332C625.833 256.332 625.417 255.916 625.417 255.291C625.417 254.874 625.833 254.249 626.458 254.249Z" fill="#F1F1F1"/>
<path d="M638.958 254.249C639.583 254.249 640 254.666 640 255.291C640 255.916 639.583 256.332 638.958 256.332C638.333 256.332 637.917 255.916 637.917 255.291C637.917 254.874 638.333 254.249 638.958 254.249Z" fill="#F1F1F1"/>
<path d="M651.458 254.249C652.083 254.249 652.5 254.666 652.5 255.291C652.5 255.916 652.083 256.332 651.458 256.332C650.833 256.332 650.417 255.916 650.417 255.291C650.417 254.874 650.833 254.249 651.458 254.249Z" fill="#F1F1F1"/>
<path d="M663.958 254.249C664.583 254.249 665 254.666 665 255.291C665 255.916 664.583 256.332 663.958 256.332C663.333 256.332 662.917 255.916 662.917 255.291C662.917 254.874 663.333 254.249 663.958 254.249Z" fill="#F1F1F1"/>
<path d="M613.958 241.749C614.583 241.749 615 242.165 615 242.79C615 243.415 614.583 243.832 613.958 243.832C613.333 243.832 612.917 243.415 612.917 242.79C612.917 242.374 613.333 241.749 613.958 241.749Z" fill="#F1F1F1"/>
<path d="M626.458 241.749C627.083 241.749 627.5 242.165 627.5 242.79C627.5 243.415 627.083 243.832 626.458 243.832C625.833 243.832 625.417 243.415 625.417 242.79C625.417 242.374 625.833 241.749 626.458 241.749Z" fill="#F1F1F1"/>
<path d="M638.958 241.749C639.583 241.749 640 242.165 640 242.79C640 243.415 639.583 243.832 638.958 243.832C638.333 243.832 637.917 243.415 637.917 242.79C637.917 242.374 638.333 241.749 638.958 241.749Z" fill="#F1F1F1"/>
<path d="M651.458 241.749C652.083 241.749 652.5 242.165 652.5 242.79C652.5 243.415 652.083 243.832 651.458 243.832C650.833 243.832 650.417 243.415 650.417 242.79C650.417 242.374 650.833 241.749 651.458 241.749Z" fill="#F1F1F1"/>
<path d="M663.958 241.749C664.583 241.749 665 242.165 665 242.79C665 243.415 664.583 243.832 663.958 243.832C663.333 243.832 662.917 243.415 662.917 242.79C662.917 242.374 663.333 241.749 663.958 241.749Z" fill="#F1F1F1"/>
<path d="M613.958 229.249C614.583 229.249 615 229.665 615 230.29C615 230.915 614.583 231.332 613.958 231.332C613.333 231.332 612.917 230.915 612.917 230.29C612.917 229.874 613.333 229.249 613.958 229.249Z" fill="#F1F1F1"/>
<path d="M626.458 229.249C627.083 229.249 627.5 229.665 627.5 230.29C627.5 230.915 627.083 231.332 626.458 231.332C625.833 231.332 625.417 230.915 625.417 230.29C625.417 229.874 625.833 229.249 626.458 229.249Z" fill="#F1F1F1"/>
<path d="M638.958 229.249C639.583 229.249 640 229.665 640 230.29C640 230.915 639.583 231.332 638.958 231.332C638.333 231.332 637.917 230.915 637.917 230.29C637.917 229.874 638.333 229.249 638.958 229.249Z" fill="#F1F1F1"/>
<path d="M651.458 229.249C652.083 229.249 652.5 229.665 652.5 230.29C652.5 230.915 652.083 231.332 651.458 231.332C650.833 231.332 650.417 230.915 650.417 230.29C650.417 229.874 650.833 229.249 651.458 229.249Z" fill="#F1F1F1"/>
<path d="M663.958 229.249C664.583 229.249 665 229.665 665 230.29C665 230.915 664.583 231.332 663.958 231.332C663.333 231.332 662.917 230.915 662.917 230.29C662.917 229.874 663.333 229.249 663.958 229.249Z" fill="#F1F1F1"/>
<path d="M613.958 216.749C614.583 216.749 615 217.165 615 217.79C615 218.415 614.583 218.832 613.958 218.832C613.333 218.832 612.917 218.415 612.917 217.79C612.917 217.374 613.333 216.749 613.958 216.749Z" fill="#F1F1F1"/>
<path d="M626.458 216.749C627.083 216.749 627.5 217.165 627.5 217.79C627.5 218.415 627.083 218.832 626.458 218.832C625.833 218.832 625.417 218.415 625.417 217.79C625.417 217.374 625.833 216.749 626.458 216.749Z" fill="#F1F1F1"/>
<path d="M638.958 216.749C639.583 216.749 640 217.165 640 217.79C640 218.415 639.583 218.832 638.958 218.832C638.333 218.832 637.917 218.415 637.917 217.79C637.917 217.374 638.333 216.749 638.958 216.749Z" fill="#F1F1F1"/>
<path d="M651.458 216.749C652.083 216.749 652.5 217.165 652.5 217.79C652.5 218.415 652.083 218.832 651.458 218.832C650.833 218.832 650.417 218.415 650.417 217.79C650.417 217.374 650.833 216.749 651.458 216.749Z" fill="#F1F1F1"/>
<path d="M663.958 216.749C664.583 216.749 665 217.165 665 217.79C665 218.415 664.583 218.832 663.958 218.832C663.333 218.832 662.917 218.415 662.917 217.79C662.917 217.374 663.333 216.749 663.958 216.749Z" fill="#F1F1F1"/>
<path d="M613.958 204.248C614.583 204.248 615 204.665 615 205.29C615 205.915 614.583 206.332 613.958 206.332C613.333 206.332 612.917 205.915 612.917 205.29C612.917 204.873 613.333 204.248 613.958 204.248Z" fill="#F1F1F1"/>
<path d="M626.458 204.248C627.083 204.248 627.5 204.665 627.5 205.29C627.5 205.915 627.083 206.332 626.458 206.332C625.833 206.332 625.417 205.915 625.417 205.29C625.417 204.873 625.833 204.248 626.458 204.248Z" fill="#F1F1F1"/>
<path d="M638.958 204.248C639.583 204.248 640 204.665 640 205.29C640 205.915 639.583 206.332 638.958 206.332C638.333 206.332 637.917 205.915 637.917 205.29C637.917 204.873 638.333 204.248 638.958 204.248Z" fill="#F1F1F1"/>
<path d="M651.458 204.248C652.083 204.248 652.5 204.665 652.5 205.29C652.5 205.915 652.083 206.332 651.458 206.332C650.833 206.332 650.417 205.915 650.417 205.29C650.417 204.873 650.833 204.248 651.458 204.248Z" fill="#F1F1F1"/>
<path d="M663.958 204.248C664.583 204.248 665 204.665 665 205.29C665 205.915 664.583 206.332 663.958 206.332C663.333 206.332 662.917 205.915 662.917 205.29C662.917 204.873 663.333 204.248 663.958 204.248Z" fill="#F1F1F1"/>
<path d="M613.958 191.748C614.583 191.748 615 192.165 615 192.79C615 193.415 614.583 193.832 613.958 193.832C613.333 193.832 612.917 193.415 612.917 192.79C612.917 192.373 613.333 191.748 613.958 191.748Z" fill="#F1F1F1"/>
<path d="M626.458 191.748C627.083 191.748 627.5 192.165 627.5 192.79C627.5 193.415 627.083 193.832 626.458 193.832C625.833 193.832 625.417 193.415 625.417 192.79C625.417 192.373 625.833 191.748 626.458 191.748Z" fill="#F1F1F1"/>
<path d="M638.958 191.748C639.583 191.748 640 192.165 640 192.79C640 193.415 639.583 193.832 638.958 193.832C638.333 193.832 637.917 193.415 637.917 192.79C637.917 192.373 638.333 191.748 638.958 191.748Z" fill="#F1F1F1"/>
<path d="M651.458 191.748C652.083 191.748 652.5 192.165 652.5 192.79C652.5 193.415 652.083 193.832 651.458 193.832C650.833 193.832 650.417 193.415 650.417 192.79C650.417 192.373 650.833 191.748 651.458 191.748Z" fill="#F1F1F1"/>
<path d="M663.958 191.748C664.583 191.748 665 192.165 665 192.79C665 193.415 664.583 193.832 663.958 193.832C663.333 193.832 662.917 193.415 662.917 192.79C662.917 192.373 663.333 191.748 663.958 191.748Z" fill="#F1F1F1"/>
<path d="M613.958 179.248C614.583 179.248 615 179.665 615 180.29C615 180.915 614.583 181.332 613.958 181.332C613.333 181.332 612.917 180.915 612.917 180.29C612.917 179.873 613.333 179.248 613.958 179.248Z" fill="#F1F1F1"/>
<path d="M626.458 179.248C627.083 179.248 627.5 179.665 627.5 180.29C627.5 180.915 627.083 181.332 626.458 181.332C625.833 181.332 625.417 180.915 625.417 180.29C625.417 179.873 625.833 179.248 626.458 179.248Z" fill="#F1F1F1"/>
<path d="M638.958 179.248C639.583 179.248 640 179.665 640 180.29C640 180.915 639.583 181.332 638.958 181.332C638.333 181.332 637.917 180.915 637.917 180.29C637.917 179.873 638.333 179.248 638.958 179.248Z" fill="#F1F1F1"/>
<path d="M651.458 179.248C652.083 179.248 652.5 179.665 652.5 180.29C652.5 180.915 652.083 181.332 651.458 181.332C650.833 181.332 650.417 180.915 650.417 180.29C650.417 179.873 650.833 179.248 651.458 179.248Z" fill="#F1F1F1"/>
<path d="M663.958 179.248C664.583 179.248 665 179.665 665 180.29C665 180.915 664.583 181.332 663.958 181.332C663.333 181.332 662.917 180.915 662.917 180.29C662.917 179.873 663.333 179.248 663.958 179.248Z" fill="#F1F1F1"/>
<path d="M613.958 166.748C614.583 166.748 615 167.165 615 167.79C615 168.415 614.583 168.832 613.958 168.832C613.333 168.832 612.917 168.415 612.917 167.79C612.917 167.373 613.333 166.748 613.958 166.748Z" fill="#F1F1F1"/>
<path d="M626.458 166.748C627.083 166.748 627.5 167.165 627.5 167.79C627.5 168.415 627.083 168.832 626.458 168.832C625.833 168.832 625.417 168.415 625.417 167.79C625.417 167.373 625.833 166.748 626.458 166.748Z" fill="#F1F1F1"/>
<path d="M638.958 166.748C639.583 166.748 640 167.165 640 167.79C640 168.415 639.583 168.832 638.958 168.832C638.333 168.832 637.917 168.415 637.917 167.79C637.917 167.373 638.333 166.748 638.958 166.748Z" fill="#F1F1F1"/>
<path d="M651.458 166.748C652.083 166.748 652.5 167.165 652.5 167.79C652.5 168.415 652.083 168.832 651.458 168.832C650.833 168.832 650.417 168.415 650.417 167.79C650.417 167.373 650.833 166.748 651.458 166.748Z" fill="#F1F1F1"/>
<path d="M663.958 166.748C664.583 166.748 665 167.165 665 167.79C665 168.415 664.583 168.832 663.958 168.832C663.333 168.832 662.917 168.415 662.917 167.79C662.917 167.373 663.333 166.748 663.958 166.748Z" fill="#F1F1F1"/>
<path d="M613.958 154.248C614.583 154.248 615 154.665 615 155.29C615 155.915 614.583 156.331 613.958 156.331C613.333 156.331 612.917 155.915 612.917 155.29C612.917 154.873 613.333 154.248 613.958 154.248Z" fill="#F1F1F1"/>
<path d="M626.458 154.248C627.083 154.248 627.5 154.665 627.5 155.29C627.5 155.915 627.083 156.331 626.458 156.331C625.833 156.331 625.417 155.915 625.417 155.29C625.417 154.873 625.833 154.248 626.458 154.248Z" fill="#F1F1F1"/>
<path d="M638.958 154.248C639.583 154.248 640 154.665 640 155.29C640 155.915 639.583 156.331 638.958 156.331C638.333 156.331 637.917 155.915 637.917 155.29C637.917 154.873 638.333 154.248 638.958 154.248Z" fill="#F1F1F1"/>
<path d="M651.458 154.248C652.083 154.248 652.5 154.665 652.5 155.29C652.5 155.915 652.083 156.331 651.458 156.331C650.833 156.331 650.417 155.915 650.417 155.29C650.417 154.873 650.833 154.248 651.458 154.248Z" fill="#F1F1F1"/>
<path d="M663.958 154.248C664.583 154.248 665 154.665 665 155.29C665 155.915 664.583 156.331 663.958 156.331C663.333 156.331 662.917 155.915 662.917 155.29C662.917 154.873 663.333 154.248 663.958 154.248Z" fill="#F1F1F1"/>
<path d="M613.958 141.748C614.583 141.748 615 142.164 615 142.789C615 143.414 614.583 143.831 613.958 143.831C613.333 143.831 612.917 143.414 612.917 142.789C612.917 142.373 613.333 141.748 613.958 141.748Z" fill="#F1F1F1"/>
<path d="M626.458 141.748C627.083 141.748 627.5 142.164 627.5 142.789C627.5 143.414 627.083 143.831 626.458 143.831C625.833 143.831 625.417 143.414 625.417 142.789C625.417 142.373 625.833 141.748 626.458 141.748Z" fill="#F1F1F1"/>
<path d="M638.958 141.748C639.583 141.748 640 142.164 640 142.789C640 143.414 639.583 143.831 638.958 143.831C638.333 143.831 637.917 143.414 637.917 142.789C637.917 142.373 638.333 141.748 638.958 141.748Z" fill="#F1F1F1"/>
<path d="M651.458 141.748C652.083 141.748 652.5 142.164 652.5 142.789C652.5 143.414 652.083 143.831 651.458 143.831C650.833 143.831 650.417 143.414 650.417 142.789C650.417 142.373 650.833 141.748 651.458 141.748Z" fill="#F1F1F1"/>
<path d="M663.958 141.748C664.583 141.748 665 142.164 665 142.789C665 143.414 664.583 143.831 663.958 143.831C663.333 143.831 662.917 143.414 662.917 142.789C662.917 142.373 663.333 141.748 663.958 141.748Z" fill="#F1F1F1"/>
<path d="M98.3333 365.083C99.1667 365.083 99.7917 365.708 99.7917 366.542C99.7917 367.375 99.1667 368 98.3333 368C97.5 368 96.875 367.375 96.875 366.542C97.0833 365.708 97.7083 365.083 98.3333 365.083Z" fill="white"/>
<path d="M114.375 365.083C115.208 365.083 115.833 365.708 115.833 366.542C115.833 367.375 115.208 368 114.375 368C113.542 368 112.917 367.375 112.917 366.542C113.125 365.708 113.75 365.083 114.375 365.083Z" fill="white"/>
<path d="M130.625 365.083C131.458 365.083 132.083 365.708 132.083 366.542C132.083 367.375 131.458 368 130.625 368C129.792 368 129.167 367.375 129.167 366.542C129.167 365.708 129.792 365.083 130.625 365.083Z" fill="white"/>
<path d="M146.667 365.083C147.5 365.083 148.125 365.708 148.125 366.542C148.125 367.375 147.5 368 146.667 368C145.833 368 145.208 367.375 145.208 366.542C145.208 365.708 145.833 365.083 146.667 365.083Z" fill="white"/>
<path d="M162.708 365.083C163.542 365.083 164.167 365.708 164.167 366.542C164.167 367.375 163.542 368 162.708 368C161.875 368 161.25 367.375 161.25 366.542C161.25 365.708 161.875 365.083 162.708 365.083Z" fill="white"/>
<path d="M98.3333 349.041C99.1667 349.041 99.7917 349.666 99.7917 350.5C99.7917 351.333 99.1667 351.958 98.3333 351.958C97.5 351.958 96.875 351.333 96.875 350.5C97.0833 349.666 97.7083 349.041 98.3333 349.041Z" fill="white"/>
<path d="M114.375 349.041C115.208 349.041 115.833 349.666 115.833 350.5C115.833 351.333 115.208 351.958 114.375 351.958C113.542 351.958 112.917 351.333 112.917 350.5C113.125 349.666 113.75 349.041 114.375 349.041Z" fill="white"/>
<path d="M130.625 349.041C131.458 349.041 132.083 349.666 132.083 350.5C132.083 351.333 131.458 351.958 130.625 351.958C129.792 351.958 129.167 351.333 129.167 350.5C129.167 349.666 129.792 349.041 130.625 349.041Z" fill="white"/>
<path d="M146.667 349.041C147.5 349.041 148.125 349.666 148.125 350.5C148.125 351.333 147.5 351.958 146.667 351.958C145.833 351.958 145.208 351.333 145.208 350.5C145.208 349.666 145.833 349.041 146.667 349.041Z" fill="white"/>
<path d="M162.708 349.041C163.542 349.041 164.167 349.666 164.167 350.5C164.167 351.333 163.542 351.958 162.708 351.958C161.875 351.958 161.25 351.333 161.25 350.5C161.25 349.666 161.875 349.041 162.708 349.041Z" fill="white"/>
<path d="M98.3333 333C99.1667 333 99.7917 333.625 99.7917 334.458C99.7917 335.291 99.1667 335.917 98.3333 335.917C97.5 335.917 96.875 335.291 96.875 334.458C97.0833 333.625 97.7083 333 98.3333 333Z" fill="white"/>
<path d="M114.375 333C115.208 333 115.833 333.625 115.833 334.458C115.833 335.291 115.208 335.917 114.375 335.917C113.542 335.917 112.917 335.291 112.917 334.458C113.125 333.625 113.75 333 114.375 333Z" fill="white"/>
<path d="M130.625 333C131.458 333 132.083 333.625 132.083 334.458C132.083 335.291 131.458 335.917 130.625 335.917C129.792 335.917 129.167 335.291 129.167 334.458C129.167 333.625 129.792 333 130.625 333Z" fill="white"/>
<path d="M146.667 333C147.5 333 148.125 333.625 148.125 334.458C148.125 335.291 147.5 335.917 146.667 335.917C145.833 335.917 145.208 335.291 145.208 334.458C145.208 333.625 145.833 333 146.667 333Z" fill="white"/>
<path d="M162.708 333C163.542 333 164.167 333.625 164.167 334.458C164.167 335.291 163.542 335.917 162.708 335.917C161.875 335.917 161.25 335.291 161.25 334.458C161.25 333.625 161.875 333 162.708 333Z" fill="white"/>
<path d="M98.3333 316.75C99.1667 316.75 99.7917 317.375 99.7917 318.208C99.7917 319.041 99.1667 319.666 98.3333 319.666C97.5 319.666 96.875 319.041 96.875 318.208C97.0833 317.375 97.7083 316.75 98.3333 316.75Z" fill="white"/>
<path d="M114.375 316.75C115.208 316.75 115.833 317.375 115.833 318.208C115.833 319.041 115.208 319.666 114.375 319.666C113.542 319.666 112.917 319.041 112.917 318.208C113.125 317.375 113.75 316.75 114.375 316.75Z" fill="white"/>
<path d="M130.625 316.75C131.458 316.75 132.083 317.375 132.083 318.208C132.083 319.041 131.458 319.666 130.625 319.666C129.792 319.666 129.167 319.041 129.167 318.208C129.167 317.375 129.792 316.75 130.625 316.75Z" fill="white"/>
<path d="M146.667 316.75C147.5 316.75 148.125 317.375 148.125 318.208C148.125 319.041 147.5 319.666 146.667 319.666C145.833 319.666 145.208 319.041 145.208 318.208C145.208 317.375 145.833 316.75 146.667 316.75Z" fill="white"/>
<path d="M162.708 316.75C163.542 316.75 164.167 317.375 164.167 318.208C164.167 319.041 163.542 319.666 162.708 319.666C161.875 319.666 161.25 319.041 161.25 318.208C161.25 317.375 161.875 316.75 162.708 316.75Z" fill="white"/>
<path d="M98.3333 300.708C99.1667 300.708 99.7917 301.333 99.7917 302.166C99.7917 302.999 99.1667 303.625 98.3333 303.625C97.5 303.625 96.875 302.999 96.875 302.166C97.0833 301.333 97.7083 300.708 98.3333 300.708Z" fill="white"/>
<path d="M114.375 300.708C115.208 300.708 115.833 301.333 115.833 302.166C115.833 302.999 115.208 303.625 114.375 303.625C113.542 303.625 112.917 302.999 112.917 302.166C113.125 301.333 113.75 300.708 114.375 300.708Z" fill="white"/>
<path d="M130.625 300.708C131.458 300.708 132.083 301.333 132.083 302.166C132.083 302.999 131.458 303.625 130.625 303.625C129.792 303.625 129.167 302.999 129.167 302.166C129.167 301.333 129.792 300.708 130.625 300.708Z" fill="white"/>
<path d="M146.667 300.708C147.5 300.708 148.125 301.333 148.125 302.166C148.125 302.999 147.5 303.625 146.667 303.625C145.833 303.625 145.208 302.999 145.208 302.166C145.208 301.333 145.833 300.708 146.667 300.708Z" fill="white"/>
<path d="M162.708 300.708C163.542 300.708 164.167 301.333 164.167 302.166C164.167 302.999 163.542 303.625 162.708 303.625C161.875 303.625 161.25 302.999 161.25 302.166C161.25 301.333 161.875 300.708 162.708 300.708Z" fill="white"/>
<path d="M98.3333 284.666C99.1667 284.666 99.7917 285.291 99.7917 286.124C99.7917 286.958 99.1667 287.583 98.3333 287.583C97.5 287.583 96.875 286.958 96.875 286.124C96.875 285.291 97.7083 284.666 98.3333 284.666Z" fill="white"/>
<path d="M114.375 284.666C115.208 284.666 115.833 285.291 115.833 286.124C115.833 286.958 115.208 287.583 114.375 287.583C113.542 287.583 112.917 286.958 112.917 286.124C112.917 285.291 113.75 284.666 114.375 284.666Z" fill="white"/>
<path d="M130.625 284.666C131.458 284.666 132.083 285.291 132.083 286.124C132.083 286.958 131.458 287.583 130.625 287.583C129.792 287.583 129.167 286.958 129.167 286.124C129.167 285.291 129.792 284.666 130.625 284.666Z" fill="white"/>
<path d="M146.667 284.666C147.5 284.666 148.125 285.291 148.125 286.124C148.125 286.958 147.5 287.583 146.667 287.583C145.833 287.583 145.208 286.958 145.208 286.124C145.208 285.291 145.833 284.666 146.667 284.666Z" fill="white"/>
<path d="M162.708 284.666C163.542 284.666 164.167 285.291 164.167 286.124C164.167 286.958 163.542 287.583 162.708 287.583C161.875 287.583 161.25 286.958 161.25 286.124C161.25 285.291 161.875 284.666 162.708 284.666Z" fill="white"/>
<path d="M98.3333 268.624C99.1667 268.624 99.7917 269.249 99.7917 270.082C99.7917 270.916 99.1667 271.541 98.3333 271.541C97.5 271.541 96.875 270.916 96.875 270.082C97.0833 269.249 97.7083 268.624 98.3333 268.624Z" fill="white"/>
<path d="M114.375 268.624C115.208 268.624 115.833 269.249 115.833 270.082C115.833 270.916 115.208 271.541 114.375 271.541C113.542 271.541 112.917 270.916 112.917 270.082C113.125 269.249 113.75 268.624 114.375 268.624Z" fill="white"/>
<path d="M130.625 268.624C131.458 268.624 132.083 269.249 132.083 270.082C132.083 270.916 131.458 271.541 130.625 271.541C129.792 271.541 129.167 270.916 129.167 270.082C129.167 269.249 129.792 268.624 130.625 268.624Z" fill="white"/>
<path d="M146.667 268.624C147.5 268.624 148.125 269.249 148.125 270.082C148.125 270.916 147.5 271.541 146.667 271.541C145.833 271.541 145.208 270.916 145.208 270.082C145.208 269.249 145.833 268.624 146.667 268.624Z" fill="white"/>
<path d="M162.708 268.624C163.542 268.624 164.167 269.249 164.167 270.082C164.167 270.916 163.542 271.541 162.708 271.541C161.875 271.541 161.25 270.916 161.25 270.082C161.25 269.249 161.875 268.624 162.708 268.624Z" fill="white"/>
<path d="M98.3333 252.582C99.1667 252.582 99.7917 253.207 99.7917 254.041C99.7917 254.874 99.1667 255.499 98.3333 255.499C97.5 255.499 96.875 254.874 96.875 254.041C96.875 253.207 97.7083 252.582 98.3333 252.582Z" fill="white"/>
<path d="M114.375 252.582C115.208 252.582 115.833 253.207 115.833 254.041C115.833 254.874 115.208 255.499 114.375 255.499C113.542 255.499 112.917 254.874 112.917 254.041C112.917 253.207 113.75 252.582 114.375 252.582Z" fill="white"/>
<path d="M130.625 252.582C131.458 252.582 132.083 253.207 132.083 254.041C132.083 254.874 131.458 255.499 130.625 255.499C129.792 255.499 129.167 254.874 129.167 254.041C129.167 253.207 129.792 252.582 130.625 252.582Z" fill="white"/>
<path d="M146.667 252.582C147.5 252.582 148.125 253.207 148.125 254.041C148.125 254.874 147.5 255.499 146.667 255.499C145.833 255.499 145.208 254.874 145.208 254.041C145.208 253.207 145.833 252.582 146.667 252.582Z" fill="white"/>
<path d="M162.708 252.582C163.542 252.582 164.167 253.207 164.167 254.041C164.167 254.874 163.542 255.499 162.708 255.499C161.875 255.499 161.25 254.874 161.25 254.041C161.25 253.207 161.875 252.582 162.708 252.582Z" fill="white"/>
<path d="M98.3333 236.332C99.1667 236.332 99.7917 236.957 99.7917 237.79C99.7917 238.624 99.1667 239.249 98.3333 239.249C97.5 239.249 96.875 238.624 96.875 237.79C97.0833 236.957 97.7083 236.332 98.3333 236.332Z" fill="white"/>
<path d="M114.375 236.332C115.208 236.332 115.833 236.957 115.833 237.79C115.833 238.624 115.208 239.249 114.375 239.249C113.542 239.249 112.917 238.624 112.917 237.79C113.125 236.957 113.75 236.332 114.375 236.332Z" fill="white"/>
<path d="M130.625 236.332C131.458 236.332 132.083 236.957 132.083 237.79C132.083 238.624 131.458 239.249 130.625 239.249C129.792 239.249 129.167 238.624 129.167 237.79C129.167 236.957 129.792 236.332 130.625 236.332Z" fill="white"/>
<path d="M146.667 236.332C147.5 236.332 148.125 236.957 148.125 237.79C148.125 238.624 147.5 239.249 146.667 239.249C145.833 239.249 145.208 238.624 145.208 237.79C145.208 236.957 145.833 236.332 146.667 236.332Z" fill="white"/>
<path d="M162.708 236.332C163.542 236.332 164.167 236.957 164.167 237.79C164.167 238.624 163.542 239.249 162.708 239.249C161.875 239.249 161.25 238.624 161.25 237.79C161.25 236.957 161.875 236.332 162.708 236.332Z" fill="white"/>
<path d="M98.3333 220.29C99.1667 220.29 99.7917 220.915 99.7917 221.749C99.7917 222.582 99.1667 223.207 98.3333 223.207C97.5 223.207 96.875 222.582 96.875 221.749C96.875 220.915 97.7083 220.29 98.3333 220.29Z" fill="white"/>
<path d="M114.375 220.29C115.208 220.29 115.833 220.915 115.833 221.749C115.833 222.582 115.208 223.207 114.375 223.207C113.542 223.207 112.917 222.582 112.917 221.749C112.917 220.915 113.75 220.29 114.375 220.29Z" fill="white"/>
<path d="M130.625 220.29C131.458 220.29 132.083 220.915 132.083 221.749C132.083 222.582 131.458 223.207 130.625 223.207C129.792 223.207 129.167 222.582 129.167 221.749C129.167 220.915 129.792 220.29 130.625 220.29Z" fill="white"/>
<path d="M146.667 220.29C147.5 220.29 148.125 220.915 148.125 221.749C148.125 222.582 147.5 223.207 146.667 223.207C145.833 223.207 145.208 222.582 145.208 221.749C145.208 220.915 145.833 220.29 146.667 220.29Z" fill="white"/>
<path d="M162.708 220.29C163.542 220.29 164.167 220.915 164.167 221.749C164.167 222.582 163.542 223.207 162.708 223.207C161.875 223.207 161.25 222.582 161.25 221.749C161.25 220.915 161.875 220.29 162.708 220.29Z" fill="white"/>
<path d="M98.3333 204.249C99.1667 204.249 99.7917 204.874 99.7917 205.707C99.7917 206.54 99.1667 207.165 98.3333 207.165C97.5 207.165 96.875 206.54 96.875 205.707C97.0833 204.874 97.7083 204.249 98.3333 204.249Z" fill="white"/>
<path d="M114.375 204.249C115.208 204.249 115.833 204.874 115.833 205.707C115.833 206.54 115.208 207.165 114.375 207.165C113.542 207.165 112.917 206.54 112.917 205.707C113.125 204.874 113.75 204.249 114.375 204.249Z" fill="white"/>
<path d="M130.625 204.249C131.458 204.249 132.083 204.874 132.083 205.707C132.083 206.54 131.458 207.165 130.625 207.165C129.792 207.165 129.167 206.54 129.167 205.707C129.167 204.874 129.792 204.249 130.625 204.249Z" fill="white"/>
<path d="M146.667 204.249C147.5 204.249 148.125 204.874 148.125 205.707C148.125 206.54 147.5 207.165 146.667 207.165C145.833 207.165 145.208 206.54 145.208 205.707C145.208 204.874 145.833 204.249 146.667 204.249Z" fill="white"/>
<path d="M162.708 204.249C163.542 204.249 164.167 204.874 164.167 205.707C164.167 206.54 163.542 207.165 162.708 207.165C161.875 207.165 161.25 206.54 161.25 205.707C161.25 204.874 161.875 204.249 162.708 204.249Z" fill="white"/>
<path d="M98.3333 188.207C99.1667 188.207 99.7917 188.832 99.7917 189.665C99.7917 190.498 99.1667 191.123 98.3333 191.123C97.5 191.123 96.875 190.498 96.875 189.665C97.0833 188.832 97.7083 188.207 98.3333 188.207Z" fill="white"/>
<path d="M114.375 188.207C115.208 188.207 115.833 188.832 115.833 189.665C115.833 190.498 115.208 191.123 114.375 191.123C113.542 191.123 112.917 190.498 112.917 189.665C113.125 188.832 113.75 188.207 114.375 188.207Z" fill="white"/>
<path d="M130.625 188.207C131.458 188.207 132.083 188.832 132.083 189.665C132.083 190.498 131.458 191.123 130.625 191.123C129.792 191.123 129.167 190.498 129.167 189.665C129.167 188.832 129.792 188.207 130.625 188.207Z" fill="white"/>
<path d="M146.667 188.207C147.5 188.207 148.125 188.832 148.125 189.665C148.125 190.498 147.5 191.123 146.667 191.123C145.833 191.123 145.208 190.498 145.208 189.665C145.208 188.832 145.833 188.207 146.667 188.207Z" fill="white"/>
<path d="M162.708 188.207C163.542 188.207 164.167 188.832 164.167 189.665C164.167 190.498 163.542 191.123 162.708 191.123C161.875 191.123 161.25 190.498 161.25 189.665C161.25 188.832 161.875 188.207 162.708 188.207Z" fill="white"/>
<path d="M98.3333 172.165C99.1667 172.165 99.7917 172.79 99.7917 173.623C99.7917 174.457 99.1667 175.082 98.3333 175.082C97.5 175.082 96.875 174.457 96.875 173.623C97.0833 172.79 97.7083 172.165 98.3333 172.165Z" fill="white"/>
<path d="M114.375 172.165C115.208 172.165 115.833 172.79 115.833 173.623C115.833 174.457 115.208 175.082 114.375 175.082C113.542 175.082 112.917 174.457 112.917 173.623C113.125 172.79 113.75 172.165 114.375 172.165Z" fill="white"/>
<path d="M130.625 172.165C131.458 172.165 132.083 172.79 132.083 173.623C132.083 174.457 131.458 175.082 130.625 175.082C129.792 175.082 129.167 174.457 129.167 173.623C129.167 172.79 129.792 172.165 130.625 172.165Z" fill="white"/>
<path d="M146.667 172.165C147.5 172.165 148.125 172.79 148.125 173.623C148.125 174.457 147.5 175.082 146.667 175.082C145.833 175.082 145.208 174.457 145.208 173.623C145.208 172.79 145.833 172.165 146.667 172.165Z" fill="white"/>
<path d="M162.708 172.165C163.542 172.165 164.167 172.79 164.167 173.623C164.167 174.457 163.542 175.082 162.708 175.082C161.875 175.082 161.25 174.457 161.25 173.623C161.25 172.79 161.875 172.165 162.708 172.165Z" fill="white"/>
<path d="M98.3333 156.123C99.1667 156.123 99.7917 156.748 99.7917 157.581C99.7917 158.415 99.1667 159.04 98.3333 159.04C97.5 159.04 96.875 158.415 96.875 157.581C97.0833 156.54 97.7083 156.123 98.3333 156.123Z" fill="white"/>
<path d="M114.375 156.123C115.208 156.123 115.833 156.748 115.833 157.581C115.833 158.415 115.208 159.04 114.375 159.04C113.542 159.04 112.917 158.415 112.917 157.581C113.125 156.54 113.75 156.123 114.375 156.123Z" fill="white"/>
<path d="M130.625 156.123C131.458 156.123 132.083 156.748 132.083 157.581C132.083 158.415 131.458 159.04 130.625 159.04C129.792 159.04 129.167 158.415 129.167 157.581C129.167 156.54 129.792 156.123 130.625 156.123Z" fill="white"/>
<path d="M146.667 156.123C147.5 156.123 148.125 156.748 148.125 157.581C148.125 158.415 147.5 159.04 146.667 159.04C145.833 159.04 145.208 158.415 145.208 157.581C145.208 156.54 145.833 156.123 146.667 156.123Z" fill="white"/>
<path d="M162.708 156.123C163.542 156.123 164.167 156.748 164.167 157.581C164.167 158.415 163.542 159.04 162.708 159.04C161.875 159.04 161.25 158.415 161.25 157.581C161.25 156.54 161.875 156.123 162.708 156.123Z" fill="white"/>
<path d="M98.3333 139.873C99.1667 139.873 99.7917 140.498 99.7917 141.331C99.7917 142.165 99.1667 142.79 98.3333 142.79C97.5 142.79 96.875 142.165 96.875 141.331C96.875 140.498 97.7083 139.873 98.3333 139.873Z" fill="white"/>
<path d="M114.375 139.873C115.208 139.873 115.833 140.498 115.833 141.331C115.833 142.165 115.208 142.79 114.375 142.79C113.542 142.79 112.917 142.165 112.917 141.331C112.917 140.498 113.75 139.873 114.375 139.873Z" fill="white"/>
<path d="M130.625 139.873C131.458 139.873 132.083 140.498 132.083 141.331C132.083 142.165 131.458 142.79 130.625 142.79C129.792 142.79 129.167 142.165 129.167 141.331C129.167 140.498 129.792 139.873 130.625 139.873Z" fill="white"/>
<path d="M146.667 139.873C147.5 139.873 148.125 140.498 148.125 141.331C148.125 142.165 147.5 142.79 146.667 142.79C145.833 142.79 145.208 142.165 145.208 141.331C145.208 140.498 145.833 139.873 146.667 139.873Z" fill="white"/>
<path d="M162.708 139.873C163.542 139.873 164.167 140.498 164.167 141.331C164.167 142.165 163.542 142.79 162.708 142.79C161.875 142.79 161.25 142.165 161.25 141.331C161.25 140.498 161.875 139.873 162.708 139.873Z" fill="white"/>
<path d="M98.3333 123.831C99.1667 123.831 99.7917 124.456 99.7917 125.289C99.7917 126.123 99.1667 126.748 98.3333 126.748C97.5 126.748 96.875 126.123 96.875 125.289C97.0833 124.456 97.7083 123.831 98.3333 123.831Z" fill="white"/>
<path d="M114.375 123.831C115.208 123.831 115.833 124.456 115.833 125.289C115.833 126.123 115.208 126.748 114.375 126.748C113.542 126.748 112.917 126.123 112.917 125.289C113.125 124.456 113.75 123.831 114.375 123.831Z" fill="white"/>
<path d="M130.625 123.831C131.458 123.831 132.083 124.456 132.083 125.289C132.083 126.123 131.458 126.748 130.625 126.748C129.792 126.748 129.167 126.123 129.167 125.289C129.167 124.456 129.792 123.831 130.625 123.831Z" fill="white"/>
<path d="M146.667 123.831C147.5 123.831 148.125 124.456 148.125 125.289C148.125 126.123 147.5 126.748 146.667 126.748C145.833 126.748 145.208 126.123 145.208 125.289C145.208 124.456 145.833 123.831 146.667 123.831Z" fill="white"/>
<path d="M162.708 123.831C163.542 123.831 164.167 124.456 164.167 125.289C164.167 126.123 163.542 126.748 162.708 126.748C161.875 126.748 161.25 126.123 161.25 125.289C161.25 124.456 161.875 123.831 162.708 123.831Z" fill="white"/>
<path d="M98.3333 107.789C99.1667 107.789 99.7917 108.414 99.7917 109.247C99.7917 110.081 99.1667 110.706 98.3333 110.706C97.5 110.706 96.875 110.081 96.875 109.247C97.0833 108.414 97.7083 107.789 98.3333 107.789Z" fill="white"/>
<path d="M114.375 107.789C115.208 107.789 115.833 108.414 115.833 109.247C115.833 110.081 115.208 110.706 114.375 110.706C113.542 110.706 112.917 110.081 112.917 109.247C113.125 108.414 113.75 107.789 114.375 107.789Z" fill="white"/>
<path d="M130.625 107.789C131.458 107.789 132.083 108.414 132.083 109.247C132.083 110.081 131.458 110.706 130.625 110.706C129.792 110.706 129.167 110.081 129.167 109.247C129.167 108.414 129.792 107.789 130.625 107.789Z" fill="white"/>
<path d="M146.667 107.789C147.5 107.789 148.125 108.414 148.125 109.247C148.125 110.081 147.5 110.706 146.667 110.706C145.833 110.706 145.208 110.081 145.208 109.247C145.208 108.414 145.833 107.789 146.667 107.789Z" fill="white"/>
<path d="M162.708 107.789C163.542 107.789 164.167 108.414 164.167 109.247C164.167 110.081 163.542 110.706 162.708 110.706C161.875 110.706 161.25 110.081 161.25 109.247C161.25 108.414 161.875 107.789 162.708 107.789Z" fill="white"/>
</svg>
