<svg width="92" height="38" viewBox="0 0 92 38" fill="none" xmlns="http://www.w3.org/2000/svg">
<path fill-rule="evenodd" clip-rule="evenodd" d="M44.4752 11.9776C44.4752 11.2024 44.4752 11.2024 45.22 11.2024H45.9648C46.7096 11.2024 46.7096 11.2024 46.7096 11.9776V26.0072C46.7096 26.7824 46.7096 26.7824 45.9648 26.7824H45.22C44.4752 26.7824 44.4752 26.7824 44.4752 26.0072V11.9776Z" fill="white"/>
<path fill-rule="evenodd" clip-rule="evenodd" d="M3.87601 19C45.22 16.9784 45.98 16.9784 87.324 19C45.98 21.0216 45.22 21.0216 3.87601 19Z" fill="white"/>
<path fill-rule="evenodd" clip-rule="evenodd" d="M67.7768 18.2248C67.6248 16.2032 69.4336 12.92 73.036 12.4488C76.9424 12.2968 77.7024 13.8472 79.8 15.4128C81.0008 16.188 81.7608 16.4312 83.5544 16.5072C82.2624 16.188 81.1528 15.732 80.5448 15.1088C77.5352 11.6736 75.5896 10.7464 73.0208 10.7464C69.4184 11.0656 66.2568 13.0872 65.4968 18.2248" fill="white"/>
<path fill-rule="evenodd" clip-rule="evenodd" d="M67.7768 19.7752C67.6248 21.7968 69.4336 25.08 73.036 25.5512C76.9424 25.7032 77.7024 24.1528 79.8 22.5872C81.0008 21.812 81.7608 21.5688 83.5544 21.4928C82.2624 21.812 81.1528 22.268 80.5448 22.8912C77.5352 26.3264 75.5896 27.2536 73.0208 27.2536C69.4184 26.9344 66.2568 24.9128 65.4968 19.7752" fill="white"/>
<path fill-rule="evenodd" clip-rule="evenodd" d="M23.4232 19.7752C23.5752 21.7968 21.7664 25.08 18.164 25.5512C14.2576 25.7032 13.4976 24.1528 11.4 22.5872C10.1992 21.812 9.4392 21.5688 7.6456 21.4928C8.9376 21.812 10.0472 22.268 10.6552 22.8912C13.6648 26.3264 15.6104 27.2536 18.1792 27.2536C21.7816 26.9344 24.9432 24.9128 25.7032 19.7752" fill="white"/>
<path fill-rule="evenodd" clip-rule="evenodd" d="M23.4232 18.2248C23.5752 16.2032 21.7664 12.92 18.164 12.4488C14.2576 12.2968 13.4976 13.8472 11.4 15.4128C10.1992 16.188 9.4392 16.4312 7.6456 16.5072C8.9376 16.188 10.0472 15.732 10.6552 15.1088C13.6648 11.6736 15.6104 10.7464 18.1792 10.7464C21.7816 11.0656 24.9432 13.0872 25.7032 18.2248" fill="white"/>
<path fill-rule="evenodd" clip-rule="evenodd" d="M58.0032 18.2248C58.748 11.2024 63.5968 5.7456 70.7864 5.5936C73.036 5.4568 76.8056 6.536 79.8152 9.652C80.56 10.4272 81.472 11.9928 83.5696 13.5432C83.9648 13.832 84.7704 14.3184 87.0352 14.3184C85.2264 13.9992 84.4816 13.376 83.8736 12.7528C82.8248 11.8104 82.8248 10.6856 79.9672 7.7672C76.8056 4.9552 74.556 3.8456 70.0416 3.876C63.7184 4.1952 56.1792 7.3112 55.3128 18.2248" fill="white"/>
<path fill-rule="evenodd" clip-rule="evenodd" d="M58.0032 19.7752C58.748 26.7976 63.5968 32.2544 70.7864 32.4064C73.036 32.5432 76.8056 31.464 79.8152 28.348C80.56 27.5728 81.472 26.0072 83.5696 24.4568C83.9648 24.168 84.7704 23.6816 87.0352 23.6816C85.2264 24.0008 84.4816 24.624 83.8736 25.2472C82.8248 26.1896 82.8248 27.3144 79.9672 30.2328C76.8056 33.0448 74.556 34.1544 70.0416 34.124C63.7184 33.8048 56.1792 30.6888 55.3128 19.7752" fill="white"/>
<path fill-rule="evenodd" clip-rule="evenodd" d="M33.1968 18.2248C32.452 11.2024 27.6032 5.7456 20.4136 5.5936C18.164 5.4568 14.3944 6.536 11.3848 9.652C10.64 10.4272 9.74319 11.9776 7.63039 13.5432C7.2352 13.832 6.42959 14.3184 4.16479 14.3184C5.97359 13.9992 6.7184 13.376 7.32639 12.7528C8.37519 11.8104 8.37519 10.6856 11.2328 7.7672C14.3944 4.9552 16.644 3.8456 21.1584 3.876C27.4816 4.1952 35.0208 7.3112 35.8872 18.2248" fill="white"/>
<path fill-rule="evenodd" clip-rule="evenodd" d="M33.1968 19.7752C32.452 26.7976 27.6032 32.2544 20.4136 32.4064C18.164 32.5432 14.3944 31.464 11.3848 28.348C10.64 27.5728 9.72799 26.0072 7.63039 24.4568C7.2352 24.168 6.42959 23.6816 4.16479 23.6816C5.97359 24.0008 6.7184 24.624 7.32639 25.2472C8.37519 26.1896 8.37519 27.3144 11.2328 30.2328C14.3944 33.0448 16.644 34.1544 21.1584 34.124C27.4816 33.8048 35.0208 30.6888 35.8872 19.7752" fill="white"/>
</svg>
